<svg xmlns="http://www.w3.org/2000/svg" xmlns:xlink="http://www.w3.org/1999/xlink" viewBox="0 0 136.73 117.26"><defs><style>.cls-1{fill:url(#Gradiente_sem_nome_13);}.cls-2{fill:#0765a8;}</style><linearGradient id="Gradiente_sem_nome_13" x1="213.07" y1="-43.11" x2="1028.73" y2="-694.21" gradientUnits="userSpaceOnUse"><stop offset="0" stop-color="#54c4f7"/><stop offset="0.51" stop-color="#29b5f5"/><stop offset="0.76" stop-color="#0765a8"/><stop offset="0.89" stop-color="#01579a"/></linearGradient></defs><title>fast</title><g id="Camada_2" data-name="Camada 2"><g id="Camada_1-2" data-name="Camada 1"><path class="cls-1" d="M82.73,116.43,45.2,78.88c-.24-.23-.6-.4-.59-.81l-.07,0L44.6,78a.08.08,0,0,1,0,.1l.16-.23a.58.58,0,0,0,.35-.45.2.2,0,0,0,.14-.06c.16,0,.14-.16.18-.27a.22.22,0,0,0,.14,0,.47.47,0,0,0,.32-.31c.14-.12.29-.23.43-.36L82.88,39.78c.17-.17.33-.35.49-.52-.13-.26-.35-.15-.51-.15H39.48a1.18,1.18,0,0,0-.94.32q-7.5,7.53-15,15s-.05.1-.08.14a2,2,0,0,0-.64.65,2.14,2.14,0,0,0-.68.66h0c-.17.16-.36.31-.53.48Q11,67,.4,77.55c-.47.47-.58.7,0,1.24Q11,89.38,21.61,100c.17.17.36.32.54.48s.31.37.48.54q7.83,7.83,15.64,15.67a1.83,1.83,0,0,0,1.43.56H83.33C83.25,116.8,83,116.65,82.73,116.43Z"/><path class="cls-2" d="M136.37,38.47q-10.65-10.59-21.25-21.22c-.17-.17-.36-.32-.54-.48s-.31-.37-.48-.54Q106.29,8.4,98.46.56A1.81,1.81,0,0,0,97,0H53.4c.08.45.39.6.6.82L91.53,38.38c.24.23.6.4.6.82l.06,0-.06.06a.06.06,0,0,1,0-.09l-.17.22a.58.58,0,0,0-.35.45.18.18,0,0,0-.13.06c-.17,0-.15.16-.19.27a.24.24,0,0,0-.14,0,.49.49,0,0,0-.32.31c-.14.12-.29.23-.42.36Q72.13,59.21,53.85,77.48c-.17.17-.33.35-.49.52.13.26.35.15.51.15H97.25a1.22,1.22,0,0,0,1-.32q7.49-7.53,15-15s.05-.09.08-.14a2.12,2.12,0,0,0,.65-.65,2.22,2.22,0,0,0,.67-.66h0c.18-.16.37-.31.53-.48q10.6-10.59,21.19-21.17C136.8,39.24,136.91,39,136.37,38.47Z"/></g></g></svg>